<mxfile host="app.diagrams.net" modified="2024-05-19T11:40:23.379Z" agent="Mozilla/5.0 (Windows NT 10.0; Win64; x64) AppleWebKit/537.36 (KHTML, like Gecko) Chrome/123.0.0.0 Safari/537.36 OPR/109.0.0.0 (Edition Yx GX 03)" etag="B2L9z5CcAyUE9cnNBAHR" version="24.4.4" type="device">
  <diagram name="Страница — 1" id="VG8YK3H3KPtLfdbkPh3V">
    <mxGraphModel dx="663" dy="365" grid="1" gridSize="10" guides="1" tooltips="1" connect="1" arrows="1" fold="1" page="1" pageScale="1" pageWidth="827" pageHeight="1169" math="0" shadow="0">
      <root>
        <mxCell id="0" />
        <mxCell id="1" parent="0" />
        <mxCell id="onqkhk56W1YgyEz8whIj-3" value="" style="rounded=0;whiteSpace=wrap;html=1;" vertex="1" parent="1">
          <mxGeometry x="80" y="310" width="120" height="60" as="geometry" />
        </mxCell>
        <mxCell id="onqkhk56W1YgyEz8whIj-4" value="" style="rounded=0;whiteSpace=wrap;html=1;" vertex="1" parent="1">
          <mxGeometry x="80" y="310" width="10" height="60" as="geometry" />
        </mxCell>
        <mxCell id="onqkhk56W1YgyEz8whIj-5" value="Обработка заказа" style="text;html=1;align=center;verticalAlign=middle;whiteSpace=wrap;rounded=0;" vertex="1" parent="1">
          <mxGeometry x="110" y="325" width="60" height="30" as="geometry" />
        </mxCell>
        <mxCell id="onqkhk56W1YgyEz8whIj-6" value="" style="rounded=0;whiteSpace=wrap;html=1;" vertex="1" parent="1">
          <mxGeometry x="230" y="270" width="120" height="60" as="geometry" />
        </mxCell>
        <mxCell id="onqkhk56W1YgyEz8whIj-7" value="" style="rounded=0;whiteSpace=wrap;html=1;" vertex="1" parent="1">
          <mxGeometry x="230" y="270" width="10" height="60" as="geometry" />
        </mxCell>
        <mxCell id="onqkhk56W1YgyEz8whIj-8" value="Управление заказами" style="text;html=1;align=center;verticalAlign=middle;whiteSpace=wrap;rounded=0;" vertex="1" parent="1">
          <mxGeometry x="260" y="285" width="60" height="30" as="geometry" />
        </mxCell>
        <mxCell id="onqkhk56W1YgyEz8whIj-10" value="" style="rounded=0;whiteSpace=wrap;html=1;" vertex="1" parent="1">
          <mxGeometry x="230" y="410" width="120" height="60" as="geometry" />
        </mxCell>
        <mxCell id="onqkhk56W1YgyEz8whIj-11" value="" style="rounded=0;whiteSpace=wrap;html=1;" vertex="1" parent="1">
          <mxGeometry x="230" y="410" width="10" height="60" as="geometry" />
        </mxCell>
        <mxCell id="onqkhk56W1YgyEz8whIj-12" value="Управление складом" style="text;html=1;align=center;verticalAlign=middle;whiteSpace=wrap;rounded=0;" vertex="1" parent="1">
          <mxGeometry x="260" y="425" width="60" height="30" as="geometry" />
        </mxCell>
        <mxCell id="onqkhk56W1YgyEz8whIj-13" value="" style="rounded=0;whiteSpace=wrap;html=1;" vertex="1" parent="1">
          <mxGeometry x="230" y="200" width="120" height="60" as="geometry" />
        </mxCell>
        <mxCell id="onqkhk56W1YgyEz8whIj-14" value="" style="rounded=0;whiteSpace=wrap;html=1;" vertex="1" parent="1">
          <mxGeometry x="230" y="200" width="10" height="60" as="geometry" />
        </mxCell>
        <mxCell id="onqkhk56W1YgyEz8whIj-15" value="Управление тех.заявками" style="text;html=1;align=center;verticalAlign=middle;whiteSpace=wrap;rounded=0;" vertex="1" parent="1">
          <mxGeometry x="260" y="215" width="60" height="30" as="geometry" />
        </mxCell>
        <mxCell id="onqkhk56W1YgyEz8whIj-16" value="" style="rounded=0;whiteSpace=wrap;html=1;" vertex="1" parent="1">
          <mxGeometry x="230" y="340" width="120" height="60" as="geometry" />
        </mxCell>
        <mxCell id="onqkhk56W1YgyEz8whIj-17" value="" style="rounded=0;whiteSpace=wrap;html=1;" vertex="1" parent="1">
          <mxGeometry x="230" y="340" width="10" height="60" as="geometry" />
        </mxCell>
        <mxCell id="onqkhk56W1YgyEz8whIj-18" value="Управление товарами" style="text;html=1;align=center;verticalAlign=middle;whiteSpace=wrap;rounded=0;" vertex="1" parent="1">
          <mxGeometry x="260" y="355" width="60" height="30" as="geometry" />
        </mxCell>
      </root>
    </mxGraphModel>
  </diagram>
</mxfile>
